<svg xmlns="http://www.w3.org/2000/svg" xmlns:xlink="http://www.w3.org/1999/xlink" viewBox="0 0 669.13 1037"><defs><style>.cls-1{fill:url(#radial-gradient);}.cls-2{fill:url(#linear-gradient);}.cls-3{fill:url(#linear-gradient-2);}.cls-4{fill:url(#linear-gradient-3);}.cls-5{fill:url(#linear-gradient-4);}</style><radialGradient id="radial-gradient" cx="735.04" cy="7718.75" r="590.72" gradientTransform="translate(-26.48 450.36) scale(0.49 0.07)" gradientUnits="userSpaceOnUse"><stop offset="0" stop-color="#cbdae3"/><stop offset="1" stop-color="#fff"/></radialGradient><linearGradient id="linear-gradient" y1="476.8" x2="669.07" y2="476.8" gradientUnits="userSpaceOnUse"><stop offset="0" stop-color="#009fbb"/><stop offset="1" stop-color="#006077"/></linearGradient><linearGradient id="linear-gradient-2" x1="501.52" y1="953.61" x2="501.52" y2="0" xlink:href="#linear-gradient"/><linearGradient id="linear-gradient-3" x1="108.25" y1="334.61" x2="560.78" y2="334.61" gradientUnits="userSpaceOnUse"><stop offset="0" stop-color="#006077"/><stop offset="1" stop-color="#009fbb"/></linearGradient><linearGradient id="linear-gradient-4" x1="251.25" y1="334.74" x2="417.68" y2="334.74" xlink:href="#linear-gradient"/></defs><title>Asset 1</title><g id="Layer_2" data-name="Layer 2"><g id="Capa_1" data-name="Capa 1"><ellipse class="cls-1" cx="333.91" cy="995.31" rx="289.71" ry="41.69"/><path class="cls-2" d="M571.1,98.1C489.81,16.8,369.59-17.42,257.67,8.84,172.34,28.87,97,83.12,50.54,157.37A333.85,333.85,0,0,0,4,281.28C-3.69,329.17.36,377.77,10.64,425,30,513.79,70.55,597.4,116.8,675.1c40.31,67.73,86.25,132.12,135.73,193.44q22.52,27.91,46.19,54.88c8.27,9.37,18.69,23.79,30.51,27.88,1.95.67,4.85,2,6.93,2.14,2.74.12,6.26-1.39,8.9-2.36,6.24-2.31,11.57-7.33,16.07-12.16,2.27-2.44,4.47-5,6.68-7.44,13.26-15,26.13-30.3,38.77-45.81C454.14,827.3,498.36,766,537.87,701.93,585.67,624.35,628,541.41,651.74,453.06c12.91-48,20.48-98.56,16.08-148.3A333.59,333.59,0,0,0,571.1,98.1M536.47,408.67c-35.34,96.25-137.06,155.74-238.25,138.47-76.84-13.12-142.06-69-167.33-142.71C105,329.1,124,243.65,178.95,186.11c58.79-61.55,150.86-83,230.74-53C505.41,169,563.93,270.78,546.4,371.65a213.17,213.17,0,0,1-9.93,37Z"/><path class="cls-3" d="M669.13,334.66c0,85.34-29.43,169.88-65.28,246.24-34.16,72.76-76.61,141.55-123,207.09C449,832.93,415.2,876.54,379.3,918.31c-6,7-11.95,14-18.22,20.68-4.41,4.72-9.61,9.56-15.63,12-1.93.77-9.3,4.17-11,1.84-.9-1.2,0-6.6,0-8v-384c0-1.93-1.12-8.34,0-10,1.43-2.12,13.77-1,17-1.27A214.17,214.17,0,0,0,460.68,509a215.22,215.22,0,0,0-89.59-386.37c-5.92-1-11.89-1.84-17.88-2.35-3.31-.28-6.63-.47-9.95-.61-.9,0-8.18.55-8.85-.21s0-4.76,0-5.67V0A334.33,334.33,0,0,1,669.13,334.66Z"/><path class="cls-4" d="M108.25,334.7c0,94.17,60.76,180.63,149.27,212.76,89.16,32.37,191.46,4,251.83-68.92,60.49-73.09,68.52-179.26,19.35-260.49S382.15,93.88,289,113c-91.23,18.71-163.62,94.53-178,186.54A227.38,227.38,0,0,0,108.25,334.7Zm299-160.92C482.86,207.89,525.52,293,507,374c-14.25,62.28-62.94,113.22-124.37,130.59-62.82,17.76-131.83-1.5-176.55-49-48.38-51.36-61.59-128.78-32.5-193.24,34.73-77,122.06-119.53,204.11-98.86a180.14,180.14,0,0,1,29.54,10.3C412.45,176.14,403.34,172,407.23,173.78Z"/><path class="cls-5" d="M334.41,251.48c-34.71,0-66.57,22.49-78.34,55.13-11.83,32.82-1.33,70.36,25.51,92.53a83.7,83.7,0,0,0,95.77,7c29.71-18,45.51-53.45,38.79-87.55C408.54,280.13,373.65,251.48,334.41,251.48Z"/></g></g></svg>