<svg xmlns="http://www.w3.org/2000/svg" viewBox="0 0 160.9 245.38"><defs><style>.cls-1{fill:#d98383;}.cls-2{fill:#fbf0b8;}</style></defs><title>newMarker_1</title><g id="Layer_2" data-name="Layer 2"><g id="Layer_1-2" data-name="Layer 1"><g id="Page-1"><g id="pin"><g id="Oval-87"><path id="path-1" d="M80.45,245.38S160.9,122.87,160.9,79.15,124.88,0,80.45,0,0,35.44,0,79.15,80.45,245.38,80.45,245.38Z"/><path id="path-1-2" data-name="path-1" class="cls-1" d="M80.45,245.38S160.9,122.87,160.9,79.15,124.88,0,80.45,0,0,35.44,0,79.15,80.45,245.38,80.45,245.38Z"/></g><g id="Oval-88"><path id="path-3" d="M80,135c31.42,0,56.9-25.06,56.9-56S111.43,23,80,23s-56.9,25.06-56.9,56S48.58,135,80,135Z"/><path id="path-3-2" data-name="path-3" class="cls-2" d="M80,135c31.42,0,56.9-25.06,56.9-56S111.43,23,80,23s-56.9,25.06-56.9,56S48.58,135,80,135Z"/></g></g></g></g></g></svg>