<svg xmlns="http://www.w3.org/2000/svg" viewBox="0 0 226.23 345"><defs><style>.cls-1{fill:#d98383;}.cls-2{fill:#fbf0b8;}</style></defs><title>newMarker</title><g id="Layer_2" data-name="Layer 2"><g id="Layer_1-2" data-name="Layer 1"><g id="Page-1"><g id="pin"><g id="Oval-87"><path id="path-1" d="M113.11,345S226.23,172.75,226.23,111.29,175.58,0,113.11,0,0,49.83,0,111.29,113.11,345,113.11,345Z"/><path id="path-1-2" data-name="path-1" class="cls-1" d="M113.11,345S226.23,172.75,226.23,111.29,175.58,0,113.11,0,0,49.83,0,111.29,113.11,345,113.11,345Z"/></g><g id="Oval-88"><path id="path-3" d="M112.49,189.74c44.18,0,80-35.24,80-78.71s-35.82-78.71-80-78.71-80,35.24-80,78.71S68.31,189.74,112.49,189.74Z"/><path id="path-3-2" data-name="path-3" class="cls-2" d="M112.49,189.74c44.18,0,80-35.24,80-78.71s-35.82-78.71-80-78.71-80,35.24-80,78.71S68.31,189.74,112.49,189.74Z"/></g></g></g></g></g></svg>